<svg width="28" height="28" viewBox="0 0 28 28" fill="none" xmlns="http://www.w3.org/2000/svg">
<path d="M1.98208 23.0959L0.817854 22.9934L1.98208 23.0959ZM26.281 23.0959L27.4451 22.9934L26.281 23.0959ZM25.0929 11.5643L23.9286 11.6668L25.0929 11.5643ZM3.17012 11.5643L4.33434 11.6668L3.17012 11.5643ZM6.72469 13.2791C6.72469 13.8762 7.2483 14.3602 7.89418 14.3602C8.54009 14.3602 9.06368 13.8762 9.06368 13.2791H6.72469ZM19.1993 13.2791C19.1993 13.8762 19.7229 14.3602 20.3688 14.3602C21.0147 14.3602 21.5383 13.8762 21.5383 13.2791H19.1993ZM6.27472 10.0359H21.9883V7.87371H6.27472V10.0359ZM23.9286 11.6668L25.1166 23.1984L27.4451 22.9934L26.2571 11.4619L23.9286 11.6668ZM23.1763 25.171H5.08667V27.3332H23.1763V25.171ZM3.1463 23.1984L4.33434 11.6668L2.0059 11.4619L0.817854 22.9934L3.1463 23.1984ZM5.08667 25.171C3.93717 25.171 3.03732 24.2561 3.1463 23.1984L0.817854 22.9934C0.578093 25.3206 2.55778 27.3332 5.08667 27.3332V25.171ZM25.1166 23.1984C25.2256 24.2561 24.3257 25.171 23.1763 25.171V27.3332C25.7052 27.3332 27.6848 25.3206 27.4451 22.9934L25.1166 23.1984ZM21.9883 10.0359C22.9931 10.0359 23.8333 10.7421 23.9286 11.6668L26.2571 11.4619C26.0475 9.42741 24.1989 7.87371 21.9883 7.87371V10.0359ZM6.27472 7.87371C4.06394 7.87371 2.21551 9.42741 2.0059 11.4619L4.33434 11.6668C4.42962 10.7421 5.26983 10.0359 6.27472 10.0359V7.87371ZM9.06368 7.51335C9.06368 4.92606 11.3327 2.82867 14.1315 2.82867V0.666504C10.0408 0.666504 6.72469 3.73195 6.72469 7.51335H9.06368ZM14.1315 2.82867C16.9303 2.82867 19.1993 4.92606 19.1993 7.51335H21.5383C21.5383 3.73195 18.2221 0.666504 14.1315 0.666504V2.82867ZM6.72469 7.51335V13.2791H9.06368V7.51335H6.72469ZM19.1993 7.51335V13.2791H21.5383V7.51335H19.1993Z" fill="#FE4C00"/>
</svg>
