<svg width="22" height="22" viewBox="0 0 22 22" fill="none" xmlns="http://www.w3.org/2000/svg">
<path d="M9.66668 21.6666C9.2889 21.6666 8.97201 21.5386 8.71601 21.2826C8.46001 21.0266 8.33246 20.7101 8.33335 20.3333V12.3333L0.600013 2.46658C0.266679 2.02214 0.216457 1.55547 0.449346 1.06659C0.682235 0.577697 1.08801 0.333252 1.66668 0.333252H20.3333C20.9111 0.333252 21.3169 0.577697 21.5507 1.06659C21.7845 1.55547 21.7342 2.02214 21.4 2.46658L13.6667 12.3333V20.3333C13.6667 20.711 13.5387 21.0279 13.2827 21.2839C13.0267 21.5399 12.7102 21.6675 12.3333 21.6666H9.66668Z" fill="#FE4C00"/>
</svg>
