<svg width="11" height="18" viewBox="0 0 11 18" fill="none" xmlns="http://www.w3.org/2000/svg">
<path d="M4.95949 17.0372C5.25783 17.6546 5.74227 17.6543 6.04001 17.0366C7.31757 14.3864 10.4281 7.92562 10.5249 7.65681L10.5412 7.61207C10.735 7.05866 10.8457 6.46631 10.8457 5.84619C10.8457 2.89419 8.45258 0.5 5.50048 0.5C2.54773 0.5 0.154297 2.89373 0.154297 5.84619C0.154297 6.2833 0.212673 6.70572 0.311499 7.11249L0.316953 7.13506C0.453753 7.68439 3.65875 14.345 4.95949 17.0372ZM5.50073 2.83112C7.16562 2.83112 8.51504 4.182 8.51504 5.84649C8.51504 7.51198 7.16532 8.86151 5.50073 8.86151C3.83509 8.86151 2.48541 7.51168 2.48541 5.84649C2.48571 4.182 3.83509 2.83112 5.50073 2.83112Z" fill="#FE4C00"/>
</svg>
