<svg width="12" height="12" viewBox="0 0 12 12" fill="none" xmlns="http://www.w3.org/2000/svg">
<path d="M6 1.08125C7.60156 1.08125 7.79219 1.0875 8.425 1.11562C9.00938 1.14219 9.32656 1.24062 9.53906 1.32188C9.81875 1.43125 10.0188 1.56094 10.2281 1.77188C10.4391 1.98125 10.5688 2.18125 10.6766 2.46094C10.7594 2.67344 10.8578 2.99062 10.8844 3.575C10.9125 4.20781 10.9187 4.39844 10.9187 6C10.9187 7.60156 10.9125 7.79219 10.8844 8.425C10.8578 9.00938 10.7594 9.32656 10.6766 9.53906C10.5688 9.81875 10.4391 10.0188 10.2281 10.2281C10.0188 10.4391 9.81875 10.5688 9.53906 10.6781C9.32656 10.7594 9.00938 10.8578 8.425 10.8844C7.79219 10.9125 7.60156 10.9187 6 10.9187C4.39844 10.9187 4.20781 10.9125 3.575 10.8844C2.99062 10.8578 2.67344 10.7594 2.46094 10.6781C2.18125 10.5688 1.98125 10.4391 1.77188 10.2281C1.56094 10.0188 1.43125 9.81875 1.32188 9.53906C1.24062 9.32656 1.14219 9.00938 1.11562 8.425C1.0875 7.79219 1.08125 7.60156 1.08125 6C1.08125 4.39844 1.0875 4.20781 1.11562 3.575C1.14219 2.99062 1.24062 2.67344 1.32188 2.46094C1.43125 2.18125 1.56094 1.98125 1.77188 1.77188C1.98125 1.56094 2.18125 1.43125 2.46094 1.32188C2.67344 1.24062 2.99062 1.14219 3.575 1.11562C4.20781 1.0875 4.39844 1.08125 6 1.08125ZM6 0C4.37031 0 4.16563 0.00625 3.52656 0.0359375C2.8875 0.0656248 2.45156 0.167188 2.07031 0.315625C1.675 0.46875 1.34062 0.673438 1.00781 1.00781C0.673438 1.34062 0.46875 1.675 0.315625 2.07031C0.167188 2.45156 0.0656248 2.8875 0.0359375 3.52656C0.00625 4.16563 0 4.37031 0 6C0 7.62969 0.00625 7.83438 0.0359375 8.47344C0.0656248 9.1125 0.167188 9.54844 0.315625 9.92969C0.46875 10.325 0.673438 10.6594 1.00781 10.9922C1.34062 11.3266 1.675 11.5312 2.07031 11.6844C2.45156 11.8328 2.8875 11.9344 3.52656 11.9641C4.16563 11.9938 4.37031 12 6 12C7.62969 12 7.83438 11.9938 8.47344 11.9641C9.1125 11.9344 9.54844 11.8328 9.92969 11.6844C10.325 11.5312 10.6594 11.3266 10.9922 10.9922C11.3266 10.6594 11.5312 10.325 11.6844 9.92969C11.8328 9.54844 11.9344 9.1125 11.9641 8.47344C11.9938 7.83438 12 7.62969 12 6C12 4.37031 11.9938 4.16563 11.9641 3.52656C11.9344 2.8875 11.8328 2.45156 11.6844 2.07031C11.5312 1.675 11.3266 1.34062 10.9922 1.00781C10.6594 0.673438 10.325 0.46875 9.92969 0.315625C9.54844 0.167188 9.1125 0.0656248 8.47344 0.0359375C7.83438 0.00625 7.62969 0 6 0ZM6 2.91875C4.29844 2.91875 2.91875 4.29844 2.91875 6C2.91875 7.70156 4.29844 9.08125 6 9.08125C7.70156 9.08125 9.08125 7.70156 9.08125 6C9.08125 4.29844 7.70156 2.91875 6 2.91875ZM6 8C4.89531 8 4 7.10469 4 6C4 4.89531 4.89531 4 6 4C7.10469 4 8 4.89531 8 6C8 7.10469 7.10469 8 6 8ZM9.92344 2.79688C9.92344 3.19531 9.6 3.51719 9.20312 3.51719C8.80469 3.51719 8.48281 3.19531 8.48281 2.79688C8.48281 2.4 8.80469 2.07656 9.20312 2.07656C9.6 2.07656 9.92344 2.4 9.92344 2.79688Z" fill="#FE4C00"/>
</svg>
