<svg width="28" height="28" viewBox="0 0 28 28" fill="none" xmlns="http://www.w3.org/2000/svg">
<path d="M4.158 27.3332C3.19459 27.3332 2.03175 26.6707 1.50932 25.8243C1.47562 25.7705 0.666687 24.4514 0.666687 22.9369C0.666687 22.3056 0.75095 21.6715 0.919477 21.0572C1.51494 18.8746 3.17212 16.893 5.59048 15.4775L5.65789 15.4379L5.70564 15.5002C5.94719 15.8116 6.21684 16.1117 6.53142 16.4174L6.6213 16.5051L6.51176 16.5646C4.27597 17.796 2.75642 19.5285 2.23399 21.4478C2.10197 21.9347 2.03456 22.4358 2.03456 22.9397C2.03456 24.0041 2.65249 25.043 2.65811 25.0543C2.93056 25.4931 3.65804 25.9093 4.158 25.9093L23.6285 25.8838C24.1537 25.8838 24.9177 25.4818 25.2295 25.043C25.2379 25.0317 25.9682 23.9871 25.9682 22.9397C25.9682 22.549 25.926 22.1555 25.8446 21.7705C25.2828 19.1124 22.8139 16.808 19.2355 15.5993C17.7693 16.9043 15.9127 17.6233 14 17.6233C9.53681 17.6233 5.90506 13.8187 5.90506 9.14492C5.90506 4.47117 9.53681 0.666504 14.0028 0.666504C18.4659 0.666504 22.0977 4.47117 22.0977 9.14492C22.0977 11.0699 21.4629 12.9496 20.3085 14.4528C22.078 15.1322 23.6313 16.1032 24.8053 17.2695C26.0384 18.4952 26.8614 19.9446 27.1816 21.4648C27.2855 21.9545 27.3361 22.4499 27.3332 22.9397C27.3332 24.4174 26.4288 25.7451 26.3249 25.8923C25.7603 26.6877 24.575 27.3105 23.6285 27.3105L4.158 27.3332ZM14 2.09326C10.2896 2.09326 7.27294 5.25815 7.27294 9.14492C7.27294 13.0345 10.2924 16.1966 14 16.1966C17.7104 16.1966 20.727 13.0317 20.727 9.14492C20.7298 5.25532 17.7104 2.09326 14 2.09326Z" fill="#FE4C00"/>
</svg>
