<svg width="28" height="28" viewBox="0 0 28 28" fill="none" xmlns="http://www.w3.org/2000/svg">
<path d="M26.9973 25.4325L19.3462 17.7697C20.8545 15.9593 21.7617 13.6457 21.7617 11.1188C21.7617 5.35389 17.0345 0.666504 11.2197 0.666504C5.40488 0.666504 0.666687 5.35936 0.666687 11.1242C0.666687 16.8891 5.39395 21.5765 11.2087 21.5765C13.6789 21.5765 15.9524 20.7287 17.7559 19.3121L25.4343 26.9968C25.8824 27.4453 26.5491 27.4453 26.9973 26.9968C27.4454 26.5483 27.4454 25.881 26.9973 25.4325ZM2.90735 11.1242C2.90735 6.59547 6.63451 2.91448 11.2087 2.91448C15.783 2.91448 19.5101 6.59547 19.5101 11.1242C19.5101 15.653 15.783 19.334 11.2087 19.334C6.63451 19.334 2.90735 15.6475 2.90735 11.1242Z" fill="#FE4C00"/>
</svg>
