<svg width="15" height="12" viewBox="0 0 15 12" fill="none" xmlns="http://www.w3.org/2000/svg">
<path d="M14.1826 1.59186C13.9627 1.68941 13.7366 1.77174 13.5055 1.83858C13.779 1.52922 13.9876 1.16522 14.1149 0.766901C14.1435 0.677617 14.1139 0.579888 14.0405 0.521495C13.9672 0.463056 13.8654 0.456056 13.7846 0.503882C13.294 0.794901 12.7646 1.00404 12.2095 1.12634C11.6504 0.579979 10.8909 0.269043 10.1059 0.269043C8.44867 0.269043 7.10043 1.61724 7.10043 3.27439C7.10043 3.40491 7.10869 3.5347 7.12504 3.66269C5.06862 3.48213 3.15681 2.47138 1.84398 0.860972C1.79719 0.803572 1.72511 0.772637 1.65132 0.778553C1.57748 0.784333 1.51114 0.825972 1.47383 0.889966C1.20756 1.34686 1.0668 1.86942 1.0668 2.40111C1.0668 3.12527 1.32534 3.81235 1.78206 4.34923C1.64319 4.30113 1.50843 4.24102 1.37981 4.16962C1.31076 4.13119 1.22649 4.13178 1.15789 4.17111C1.08924 4.21045 1.0462 4.2828 1.0444 4.36188C1.04408 4.3752 1.04408 4.38852 1.04408 4.40202C1.04408 5.48296 1.62585 6.45614 2.5153 6.98656C2.43888 6.97893 2.36252 6.96786 2.28665 6.95336C2.20843 6.93842 2.12799 6.96583 2.07525 7.02549C2.02241 7.0851 2.00493 7.1682 2.02927 7.24407C2.3585 8.27194 3.20613 9.02798 4.23084 9.25849C3.38095 9.7908 2.40903 10.0696 1.38875 10.0696C1.17586 10.0696 0.961751 10.0571 0.752203 10.0323C0.648107 10.02 0.548571 10.0814 0.51312 10.1804C0.477668 10.2794 0.515242 10.3899 0.603803 10.4466C1.91452 11.287 3.43008 11.7312 4.98656 11.7312C8.04642 11.7312 9.96058 10.2883 11.0275 9.07789C12.358 7.56855 13.121 5.57075 13.121 3.5968C13.121 3.51433 13.1197 3.43106 13.1172 3.34805C13.6421 2.95257 14.094 2.47395 14.4618 1.92384C14.5177 1.84029 14.5116 1.72988 14.4469 1.65297C14.3823 1.57601 14.2746 1.55113 14.1826 1.59186Z" fill="#FE4C00"/>
</svg>
