<svg width="18" height="10" viewBox="0 0 18 10" fill="none" xmlns="http://www.w3.org/2000/svg">
<path fill-rule="evenodd" clip-rule="evenodd" d="M15.4916 6.35846C16.0886 6.93074 16.7188 7.46917 17.2544 8.09917C17.4909 8.37912 17.7149 8.66802 17.8862 8.99292C18.129 9.45477 17.9091 9.96302 17.4873 9.9906L14.865 9.98944C14.1886 10.0445 13.6491 9.77723 13.1954 9.32327C12.8324 8.96023 12.4962 8.57385 12.1471 8.19856C12.0039 8.04517 11.8541 7.90084 11.6752 7.78675C11.3172 7.55864 11.0065 7.62849 10.8019 7.99501C10.5935 8.3678 10.5463 8.7806 10.5258 9.19607C10.4977 9.80226 10.3111 9.96163 9.69083 9.98938C8.36525 10.0507 7.10722 9.85387 5.93854 9.1974C4.9082 8.61867 4.10921 7.80167 3.41377 6.87674C2.05975 5.07571 1.02284 3.09667 0.0909061 1.06218C-0.118865 0.603809 0.0345452 0.357757 0.549718 0.349048C1.40519 0.332734 2.26053 0.333895 3.11701 0.347887C3.46469 0.35288 3.69487 0.548653 3.82912 0.87111C4.29195 1.98833 4.85828 3.05127 5.56915 4.03652C5.75846 4.29883 5.95149 4.56114 6.22638 4.74576C6.53048 4.95019 6.76201 4.88243 6.90507 4.54987C6.99586 4.33901 7.0356 4.11188 7.05606 3.88603C7.12384 3.10903 7.13277 2.33337 7.01389 1.5591C6.94091 1.07588 6.66366 0.763063 6.1725 0.671621C5.92186 0.625 5.95918 0.533442 6.08054 0.392999C6.29131 0.150778 6.48955 0 6.88473 0H9.84832C10.3149 0.0903971 10.4185 0.296157 10.4824 0.757025L10.4849 3.98874C10.4798 4.16715 10.5757 4.69659 10.903 4.81468C11.165 4.89875 11.3377 4.69299 11.4949 4.5299C12.2045 3.79058 12.7109 2.91686 13.1633 2.01213C13.3641 1.61432 13.5367 1.20117 13.704 0.788377C13.828 0.48206 14.0225 0.33134 14.374 0.338017L17.2263 0.340513C17.3108 0.340513 17.3964 0.341733 17.4783 0.355493C17.959 0.435904 18.0907 0.638876 17.9422 1.09963C17.7083 1.82252 17.2532 2.42493 16.8083 3.03013C16.3326 3.67627 15.8239 4.30028 15.3522 4.95025C14.9188 5.54378 14.9532 5.84295 15.4916 6.35846Z" fill="#FE4C00"/>
</svg>
